<svg width="20" height="21" viewBox="0 0 20 21" fill="none" xmlns="http://www.w3.org/2000/svg">
<path d="M1.66602 11.2678V12.9261C1.66602 17.0928 3.33268 18.7594 7.49935 18.7594H12.4993C16.666 18.7594 18.3327 17.0928 18.3327 12.9261V7.92611C18.3327 3.75944 16.666 2.09277 12.4993 2.09277H7.49935C3.33268 2.09277 1.66602 3.75944 1.66602 7.92611" stroke="#333333" stroke-width="1.25" stroke-linecap="round" stroke-linejoin="round"/>
<path d="M14.5833 10.0671V14.1755C14.5833 15.0921 13.8417 15.8421 12.9167 15.8421C12 15.8421 11.25 15.0921 11.25 14.1755V6.67546C11.25 5.75879 12 5.00879 12.9167 5.00879C13.8333 5.00879 14.5833 5.75879 14.5833 6.67546" stroke="#333333" stroke-width="1.25" stroke-linecap="round" stroke-linejoin="round"/>
<path d="M7.08268 15.8428C7.99935 15.8428 8.74935 15.0928 8.74935 14.1761V11.2594C8.74935 10.3428 7.99935 9.59277 7.08268 9.59277C6.16602 9.59277 5.41602 10.3428 5.41602 11.2594V14.1761C5.41602 15.0928 6.15768 15.8428 7.08268 15.8428Z" stroke="#333333" stroke-width="1.25" stroke-linecap="round" stroke-linejoin="round"/>
</svg>
