<svg width="20" height="21" viewBox="0 0 20 21" fill="none" xmlns="http://www.w3.org/2000/svg">
<path d="M16.7507 5.16758C18.0507 4.23425 18.6757 4.70925 18.1423 6.21758L14.7757 15.6426C14.659 15.9759 14.2673 16.2509 13.9173 16.2509H6.08399C5.73399 16.2509 5.34232 15.9759 5.22565 15.6426L1.77565 5.98425C1.28399 4.60091 1.85899 4.17591 3.04232 5.02591L6.29232 7.35091C6.83399 7.72591 7.45065 7.53425 7.68399 6.92591L9.15065 3.01758C9.61732 1.76758 10.3923 1.76758 10.859 3.01758L12.3257 6.92591C12.559 7.53425 13.1757 7.72591 13.709 7.35091L14.234 6.97591" stroke="#333333" stroke-width="1.25" stroke-linecap="round" stroke-linejoin="round"/>
<path d="M5.41602 18.7588H14.5827" stroke="#333333" stroke-width="1.25" stroke-linecap="round" stroke-linejoin="round"/>
<path d="M7.91602 12.0928H12.0827" stroke="#333333" stroke-width="1.25" stroke-linecap="round" stroke-linejoin="round"/>
</svg>
