<svg width="20" height="20" viewBox="0 0 20 20" fill="none" xmlns="http://www.w3.org/2000/svg">
<path d="M3.34935 4.97533C2.29102 6.37533 1.66602 8.11699 1.66602 10.0003C1.66602 14.6003 5.39935 18.3337 9.99935 18.3337C14.5993 18.3337 18.3327 14.6003 18.3327 10.0003C18.3327 5.40033 14.5993 1.66699 9.99935 1.66699" stroke="#333333" stroke-width="1.25" stroke-linecap="round" stroke-linejoin="round"/>
<path d="M4.16602 10.0003C4.16602 13.2253 6.77435 15.8337 9.99935 15.8337C13.2243 15.8337 15.8327 13.2253 15.8327 10.0003C15.8327 6.77533 13.2243 4.16699 9.99935 4.16699" stroke="#333333" stroke-width="1.25" stroke-linecap="round" stroke-linejoin="round"/>
<path d="M10 13.3337C11.8417 13.3337 13.3333 11.842 13.3333 10.0003C13.3333 8.15866 11.8417 6.66699 10 6.66699" stroke="#333333" stroke-width="1.25" stroke-linecap="round" stroke-linejoin="round"/>
</svg>
