<svg width="20" height="21" viewBox="0 0 20 21" fill="none" xmlns="http://www.w3.org/2000/svg">
<path d="M2.80006 16.4586C3.00006 17.642 4.13339 18.6003 5.33339 18.6003H14.6667C15.8584 18.6003 17.0001 17.6336 17.2001 16.4586L18.3084 9.82534C18.4417 9.00868 18.0251 7.91698 17.3834 7.40032L11.6084 2.78367C10.7167 2.067 9.27507 2.06699 8.39173 2.77533L2.61673 7.40032C1.96673 7.91698 1.55006 9.00868 1.69172 9.82534L2.2584 13.2336" stroke="#333333" stroke-width="1.25" stroke-linecap="round" stroke-linejoin="round"/>
<path d="M9.99935 9.17578C8.84935 9.17578 7.91602 10.1091 7.91602 11.2591C7.91602 12.4091 8.84935 13.3424 9.99935 13.3424C11.1493 13.3424 12.0827 12.4091 12.0827 11.2591" stroke="#333333" stroke-width="1.25" stroke-linecap="round" stroke-linejoin="round"/>
</svg>
