<svg width="131" height="44" viewBox="0 0 131 44" fill="none" xmlns="http://www.w3.org/2000/svg">
<g filter="url(#filter0_d_753_1566)">
<path d="M16.3513 22.6191V27.7071H31.7244V31.2591H12.2539V10.5551H31.6936V14.1071H16.3513V19.2591H22.6361H28.9209V22.6191H16.3513Z" fill="#2481E2"/>
<path d="M70.7243 25.9791H74.6061C74.4418 27.0671 74.0002 28.0377 73.2813 28.8911C72.583 29.7444 71.628 30.4164 70.4162 30.9071C69.2044 31.3977 67.7257 31.6431 65.9799 31.6431C64.0287 31.6431 62.3035 31.3231 60.8042 30.6831C59.3049 30.0217 58.1342 29.0724 57.2921 27.8351C56.45 26.5977 56.029 25.1044 56.029 23.3551C56.029 21.6057 56.4398 20.1124 57.2613 18.8751C58.0829 17.6164 59.2227 16.6564 60.681 15.9951C62.1597 15.3337 63.885 15.0031 65.8567 15.0031C67.8694 15.0031 69.5433 15.3337 70.8783 15.9951C72.2133 16.6564 73.1992 17.6591 73.8359 19.0031C74.4931 20.3257 74.7704 22.0217 74.6677 24.0911H60.0648C60.1675 24.9017 60.4551 25.6377 60.9274 26.2991C61.4204 26.9604 62.0776 27.4831 62.8991 27.8671C63.7412 28.2511 64.7373 28.4431 65.8875 28.4431C67.1609 28.4431 68.2186 28.2191 69.0607 27.7711C69.9233 27.3017 70.4778 26.7044 70.7243 25.9791ZM65.6718 18.1711C64.1931 18.1711 62.9915 18.5124 62.0673 19.1951C61.1431 19.8564 60.5475 20.6777 60.2805 21.6591H70.6935C70.5908 20.5924 70.0979 19.7497 69.2147 19.1311C68.3521 18.4911 67.1711 18.1711 65.6718 18.1711Z" fill="#2481E2"/>
<path d="M118.29 25.9791H122.171C122.007 27.0671 121.566 28.0377 120.847 28.8911C120.148 29.7444 119.193 30.4164 117.982 30.9071C116.77 31.3977 115.291 31.6431 113.545 31.6431C111.594 31.6431 109.869 31.3231 108.37 30.6831C106.87 30.0217 105.7 29.0724 104.858 27.8351C104.015 26.5977 103.594 25.1044 103.594 23.3551C103.594 21.6057 104.005 20.1124 104.827 18.8751C105.648 17.6164 106.788 16.6564 108.246 15.9951C109.725 15.3337 111.45 15.0031 113.422 15.0031C115.435 15.0031 117.109 15.3337 118.444 15.9951C119.779 16.6564 120.765 17.6591 121.401 19.0031C122.059 20.3257 122.336 22.0217 122.233 24.0911H107.63C107.733 24.9017 108.02 25.6377 108.493 26.2991C108.986 26.9604 109.643 27.4831 110.465 27.8671C111.307 28.2511 112.303 28.4431 113.453 28.4431C114.726 28.4431 115.784 28.2191 116.626 27.7711C117.489 27.3017 118.043 26.7044 118.29 25.9791ZM113.237 18.1711C111.758 18.1711 110.557 18.5124 109.633 19.1951C108.709 19.8564 108.113 20.6777 107.846 21.6591H118.259C118.156 20.5924 117.663 19.7497 116.78 19.1311C115.918 18.4911 114.737 18.1711 113.237 18.1711Z" fill="#2481E2"/>
<path fill-rule="evenodd" clip-rule="evenodd" d="M94.0515 15.3551H90.1081V18.5871H94.0515V31.2591H98.0565V18.5871H102V15.3551H98.0565V11.0031H94.0515V15.3551Z" fill="#47ACBB"/>
<path fill-rule="evenodd" clip-rule="evenodd" d="M79.8094 15.6431H76.359V18.8111H79.8094V31.2591H83.8144V18.8111H88.6821V15.6431H83.8144V15.0031C83.8144 14.2777 83.9274 13.7231 84.1533 13.3391C84.3792 12.9337 84.7079 12.6564 85.1392 12.5071C85.5705 12.3577 86.0839 12.2937 86.6796 12.3151H88.8977V8.95508H85.7245C84.4511 8.95508 83.3729 9.14708 82.4897 9.53108C81.6065 9.91508 80.939 10.5231 80.4872 11.3551C80.0354 12.1657 79.8094 13.2111 79.8094 14.4911V15.6431Z" fill="#47ACBB"/>
<path d="M35.4076 15.3551H39.4126V18.1497C39.4126 18.2345 39.5114 18.2808 39.5766 18.2266L41.5073 16.6192C41.5073 16.6192 42.7398 15.8564 43.6024 15.5151C44.465 15.1737 45.4406 15.0031 46.5292 15.0031C47.4739 15.0031 48.3468 15.1311 49.1478 15.3871C49.9488 15.6431 50.6471 16.0377 51.2427 16.5711C51.8384 17.1044 52.3005 17.7871 52.6291 18.6191C52.9577 19.4297 53.122 20.4004 53.122 21.5311V31.2591H49.117V22.2671C49.117 20.9231 48.7987 19.9417 48.162 19.3231C47.5458 18.6831 46.5292 18.3631 45.112 18.3631C44.044 18.3631 43.0787 18.5764 42.2161 19.0031C41.3535 19.4297 40.6552 19.9737 40.1212 20.6351C39.8065 21.0121 39.5704 21.4003 39.4126 21.7996V31.2591H35.4076V15.3551Z" fill="#47ACBB"/>
</g>
<defs>
<filter id="filter0_d_753_1566" x="0.253906" y="0.955078" width="130" height="42.6885" filterUnits="userSpaceOnUse" color-interpolation-filters="sRGB">
<feFlood flood-opacity="0" result="BackgroundImageFix"/>
<feColorMatrix in="SourceAlpha" type="matrix" values="0 0 0 0 0 0 0 0 0 0 0 0 0 0 0 0 0 0 127 0" result="hardAlpha"/>
<feOffset dx="-2" dy="2"/>
<feGaussianBlur stdDeviation="5"/>
<feComposite in2="hardAlpha" operator="out"/>
<feColorMatrix type="matrix" values="0 0 0 0 0.141177 0 0 0 0 0.505883 0 0 0 0 0.886274 0 0 0 0.2 0"/>
<feBlend mode="normal" in2="BackgroundImageFix" result="effect1_dropShadow_753_1566"/>
<feBlend mode="normal" in="SourceGraphic" in2="effect1_dropShadow_753_1566" result="shape"/>
</filter>
</defs>
</svg>
