<svg width="16" height="16" viewBox="0 0 16 16" fill="none" xmlns="http://www.w3.org/2000/svg">
<path d="M8 4.29395V6.51395" stroke="#47ACBB" stroke-miterlimit="10" stroke-linecap="round"/>
<path d="M13.7256 10.113C14.2123 10.9263 13.8256 11.9797 12.9256 12.2797C9.73898 13.3397 6.29231 13.3397 3.10564 12.2797C2.14564 11.9597 1.77898 10.9863 2.30564 10.113L3.15231 8.69967C3.38565 8.31301 3.57231 7.62634 3.57231 7.17967V5.77967C3.57231 3.31967 5.55898 1.33301 8.01231 1.33301C10.4523 1.33301 12.4523 3.33301 12.4523 5.77301V7.17301C12.4523 7.29301 12.4656 7.42634 12.4856 7.56634" stroke="#47ACBB" stroke-miterlimit="10" stroke-linecap="round"/>
<path d="M10.2193 12.5469C10.2193 13.7669 9.2193 14.7669 7.9993 14.7669C7.39263 14.7669 6.83263 14.5135 6.43263 14.1135C6.03263 13.7135 5.7793 13.1535 5.7793 12.5469" stroke="#47ACBB" stroke-miterlimit="10"/>
</svg>
