<svg width="16" height="16" viewBox="0 0 16 16" fill="none" xmlns="http://www.w3.org/2000/svg">
<path d="M13.7266 10.1134C14.2133 10.9267 13.8266 11.98 12.9266 12.28C9.73995 13.34 6.29329 13.34 3.10662 12.28C2.14662 11.96 1.77995 10.9867 2.30662 10.1134L3.15329 8.70004C3.38662 8.31337 3.57329 7.62671 3.57329 7.18004V5.78004C3.57329 3.32004 5.55996 1.33337 8.01329 1.33337C10.4533 1.33337 12.4533 3.33337 12.4533 5.77337V7.17337C12.4533 7.29337 12.4666 7.42671 12.4866 7.56671" fill="white"/>
<path d="M8 4.29333V6.51334" stroke="white" stroke-miterlimit="10" stroke-linecap="round"/>
<path d="M10.22 12.5466C10.22 13.7666 9.22003 14.7666 8.00003 14.7666C7.39336 14.7666 6.83336 14.5133 6.43336 14.1133C6.03336 13.7133 5.78003 13.1533 5.78003 12.5466" stroke="white" stroke-miterlimit="10"/>
</svg>
