<svg width="20" height="21" viewBox="0 0 20 21" fill="none" xmlns="http://www.w3.org/2000/svg">
<path d="M2.5 11.3262V12.8262C2.5 14.5929 2.5 14.5929 4.16667 15.7179L8.75 18.3679C9.44167 18.7679 10.5667 18.7679 11.25 18.3679L15.8333 15.7179C17.5 14.5929 17.5 14.5929 17.5 12.8346V8.0179C17.5 6.25957 17.5 6.25957 15.8333 5.13457L11.25 2.48457C10.5667 2.08457 9.44167 2.08457 8.75 2.48457L4.16667 5.13457C2.5 6.25957 2.5 6.25957 2.5 8.0179" stroke="#333333" stroke-width="1.25" stroke-linecap="round" stroke-linejoin="round"/>
<path d="M12.5 10.4258C12.5 9.04245 11.3833 7.92578 10 7.92578C8.61667 7.92578 7.5 9.04245 7.5 10.4258C7.5 11.8091 8.61667 12.9258 10 12.9258C10.3417 12.9258 10.675 12.8591 10.975 12.7258" stroke="#333333" stroke-width="1.25" stroke-miterlimit="10" stroke-linecap="round" stroke-linejoin="round"/>
</svg>
