<svg width="20" height="21" viewBox="0 0 20 21" fill="none" xmlns="http://www.w3.org/2000/svg">
<path d="M10.8586 2.09233H7.46695C7.13362 2.09233 6.81693 2.209 6.5586 2.409L4.73359 3.86733C4.00026 4.45066 4.00026 5.55898 4.73359 6.14231L6.5586 7.60065C6.81693 7.80898 7.14195 7.91732 7.46695 7.91732H14.3502C15.1586 7.91732 15.8086 7.26732 15.8086 6.45898V3.54232C15.8086 2.73398 15.1586 2.08398 14.3502 2.08398" stroke="#333333" stroke-width="1.25" stroke-linecap="round" stroke-linejoin="round"/>
<path d="M5.66732 10.4258H12.5507C12.884 10.4258 13.2007 10.5425 13.459 10.7425L15.284 12.2008C16.0174 12.7841 16.0174 13.8924 15.284 14.4758L13.459 15.9341C13.2007 16.1424 12.8757 16.2508 12.5507 16.2508H5.66732C4.85898 16.2508 4.20898 15.6008 4.20898 14.7924V11.8758C4.20898 11.0758 4.85898 10.4258 5.66732 10.4258Z" stroke="#333333" stroke-width="1.25" stroke-linecap="round" stroke-linejoin="round"/>
<path d="M10 10.4258V7.92578" stroke="#333333" stroke-width="1.25" stroke-linecap="round" stroke-linejoin="round"/>
<path d="M10 18.7588V16.2588" stroke="#333333" stroke-width="1.25" stroke-linecap="round" stroke-linejoin="round"/>
<path d="M7.5 18.7588H12.5" stroke="#333333" stroke-width="1.25" stroke-linecap="round" stroke-linejoin="round"/>
</svg>
