<svg width="83" height="32" viewBox="0 0 83 32" fill="none" xmlns="http://www.w3.org/2000/svg">
<path d="M53.5583 6.89259C67.4854 7.59186 81 31.25 81 31.25H1.00001V0.75C1.00001 0.75 11.5143 21.4075 27.2975 21.711C39.9983 21.9553 40.8771 6.25587 53.5583 6.89259Z" fill="url(#paint0_linear_599_6223)" fill-opacity="0.35"/>
<path d="M0.563451 0.993773C0.428819 0.752672 0.515128 0.448082 0.756228 0.313452C0.997327 0.17882 1.30192 0.265129 1.43655 0.506227L0.563451 0.993773ZM26.2632 21.75L26.2381 22.2494L26.2632 21.75ZM53.3308 6.75L53.3404 6.25009L53.3308 6.75ZM81.4732 31.4115C81.384 31.6728 81.0999 31.8124 80.8385 31.7232L76.5796 30.2702C76.3182 30.181 76.1787 29.8968 76.2678 29.6355C76.357 29.3741 76.6412 29.2346 76.9025 29.3237L80.6882 30.6153L81.9798 26.8296C82.069 26.5683 82.3532 26.4287 82.6145 26.5178C82.8759 26.607 83.0154 26.8912 82.9263 27.1525L81.4732 31.4115ZM1 0.75C1.43655 0.506227 1.43653 0.506197 1.43656 0.506243C1.43662 0.506361 1.43669 0.506483 1.43682 0.50672C1.43709 0.507191 1.43752 0.507971 1.43813 0.509054C1.43935 0.511221 1.44125 0.514605 1.44383 0.51919C1.449 0.528358 1.4569 0.542322 1.46749 0.560932C1.48867 0.598152 1.52064 0.653946 1.56311 0.7271C1.64806 0.873415 1.77505 1.08914 1.94192 1.36456C2.27572 1.91544 2.76893 2.7048 3.40447 3.65492C4.67615 5.55606 6.51469 8.09631 8.78314 10.6562C13.3452 15.8043 19.5415 20.9119 26.2882 21.2506L26.2381 22.2494C19.0577 21.8888 12.6224 16.4964 8.03472 11.3194C5.72826 8.71665 3.86233 6.13801 2.57328 4.21091C1.92845 3.24691 1.42723 2.44481 1.08667 1.88277C0.91638 1.60172 0.786213 1.38062 0.698308 1.22921C0.654355 1.15351 0.620962 1.09523 0.598398 1.05558C0.587116 1.03576 0.57854 1.0206 0.572705 1.01024C0.569787 1.00507 0.567554 1.00109 0.566011 0.998343C0.565239 0.996967 0.564639 0.995897 0.564212 0.995134C0.563999 0.994753 0.563809 0.994411 0.563702 0.994221C0.563555 0.993958 0.563451 0.993773 1 0.75ZM26.2882 21.2506C32.3701 21.556 35.8143 17.9329 39.4237 14.0565C42.999 10.2165 46.7385 6.12314 53.3404 6.25009L53.3212 7.24991C47.2223 7.13263 43.7685 10.8576 40.1555 14.7379C36.5765 18.5817 32.8374 22.5807 26.2381 22.2494L26.2882 21.2506ZM53.3404 6.25009C61.4724 6.40647 68.5168 12.698 73.4722 18.7986C75.9636 21.8657 77.956 24.9207 79.3252 27.2077C80.0101 28.3517 80.5399 29.3049 80.8989 29.973C81.0784 30.3071 81.2153 30.5701 81.3076 30.7501C81.3537 30.84 81.3887 30.9093 81.4123 30.9564C81.4241 30.9799 81.4331 30.9979 81.4392 31.0102C81.4422 31.0163 81.4445 31.021 81.4462 31.0242C81.4469 31.0258 81.4476 31.0271 81.448 31.028C81.4482 31.0284 81.4484 31.0288 81.4485 31.029C81.4487 31.0293 81.4488 31.0295 81 31.25C80.5512 31.4705 80.5512 31.4705 80.5512 31.4704C80.5511 31.4703 80.551 31.4701 80.5509 31.4698C80.5506 31.4692 80.5501 31.4683 80.5495 31.467C80.5482 31.4643 80.5462 31.4603 80.5435 31.4548C80.538 31.4438 80.5297 31.427 80.5185 31.4048C80.4962 31.3603 80.4625 31.2936 80.4177 31.2063C80.3282 31.0317 80.1943 30.7745 80.018 30.4464C79.6654 29.7901 79.1432 28.8505 78.4672 27.7214C77.1146 25.4621 75.149 22.449 72.696 19.4291C67.7626 13.3555 60.9725 7.39704 53.3212 7.24991L53.3404 6.25009Z" fill="#ED6161"/>
<defs>
<linearGradient id="paint0_linear_599_6223" x1="41" y1="0.75" x2="41" y2="31.25" gradientUnits="userSpaceOnUse">
<stop stop-color="#EC5F5F"/>
<stop offset="1" stop-color="#EC5F5F" stop-opacity="0"/>
</linearGradient>
</defs>
</svg>
