<svg width="83" height="32" viewBox="0 0 83 32" fill="none" xmlns="http://www.w3.org/2000/svg">
<path d="M26.2632 10.25C12.3361 10.9493 1 31.25 1 31.25H81V0.75C81 0.75 69.114 24.9465 53.3308 25.25C40.63 25.4942 38.9443 9.61328 26.2632 10.25Z" fill="url(#paint0_linear_602_6248)" fill-opacity="0.35"/>
<path d="M0.563451 31.0062C0.428819 31.2473 0.515128 31.5519 0.756228 31.6865C0.997327 31.8212 1.30192 31.7349 1.43655 31.4938L0.563451 31.0062ZM26.2632 10.25L26.2381 9.75063L26.2632 10.25ZM53.3308 25.25L53.3404 25.7499L53.3308 25.25ZM81.4732 0.588549C81.384 0.327199 81.0999 0.187617 80.8385 0.276784L76.5796 1.72984C76.3182 1.81901 76.1787 2.10316 76.2678 2.36451C76.357 2.62586 76.6412 2.76544 76.9025 2.67627L80.6882 1.38467L81.9798 5.1704C82.069 5.43175 82.3532 5.57133 82.6145 5.48216C82.8759 5.393 83.0154 5.10885 82.9263 4.8475L81.4732 0.588549ZM1 31.25C1.43655 31.4938 1.43653 31.4938 1.43656 31.4938C1.43662 31.4936 1.43669 31.4935 1.43682 31.4933C1.43709 31.4928 1.43752 31.492 1.43813 31.4909C1.43935 31.4888 1.44125 31.4854 1.44383 31.4808C1.449 31.4716 1.4569 31.4577 1.46749 31.4391C1.48867 31.4018 1.52064 31.3461 1.56311 31.2729C1.64806 31.1266 1.77505 30.9109 1.94192 30.6354C2.27572 30.0846 2.76893 29.2952 3.40447 28.3451C4.67615 26.4439 6.51469 23.9037 8.78314 21.3438C13.3452 16.1957 19.5415 11.0881 26.2882 10.7494L26.2381 9.75063C19.0577 10.1112 12.6224 15.5036 8.03472 20.6806C5.72826 23.2834 3.86233 25.862 2.57328 27.7891C1.92845 28.7531 1.42723 29.5552 1.08667 30.1172C0.91638 30.3983 0.786213 30.6194 0.698308 30.7708C0.654355 30.8465 0.620962 30.9048 0.598398 30.9444C0.587116 30.9642 0.57854 30.9794 0.572705 30.9898C0.569787 30.9949 0.567554 30.9989 0.566011 31.0017C0.565239 31.003 0.564639 31.0041 0.564212 31.0049C0.563999 31.0052 0.563809 31.0056 0.563702 31.0058C0.563555 31.006 0.563451 31.0062 1 31.25ZM26.2882 10.7494C32.3701 10.444 35.8143 14.0671 39.4237 17.9435C42.999 21.7835 46.7385 25.8769 53.3404 25.7499L53.3212 24.7501C47.2223 24.8674 43.7685 21.1424 40.1555 17.2621C36.5765 13.4183 32.8374 9.41928 26.2381 9.75063L26.2882 10.7494ZM53.3404 25.7499C61.4724 25.5935 68.5168 19.302 73.4722 13.2014C75.9636 10.1343 77.956 7.07928 79.3252 4.79228C80.0101 3.64825 80.5399 2.69509 80.8989 2.02695C81.0784 1.69285 81.2153 1.42993 81.3076 1.24995C81.3537 1.15995 81.3887 1.09069 81.4123 1.04362C81.4241 1.02008 81.4331 1.00209 81.4392 0.989838C81.4422 0.983711 81.4445 0.979016 81.4462 0.975777C81.4469 0.974158 81.4476 0.972903 81.448 0.972014C81.4482 0.97157 81.4484 0.971179 81.4485 0.970957C81.4487 0.970658 81.4488 0.970452 81 0.75C80.5512 0.529548 80.5512 0.529527 80.5512 0.529597C80.5511 0.529743 80.551 0.529904 80.5509 0.530196C80.5506 0.530778 80.5501 0.531726 80.5495 0.533038C80.5482 0.535661 80.5462 0.539735 80.5435 0.545239C80.538 0.556246 80.5297 0.57297 80.5185 0.595225C80.4962 0.639737 80.4625 0.706376 80.4177 0.793677C80.3282 0.968282 80.1943 1.2255 80.018 1.55362C79.6654 2.20991 79.1432 3.14947 78.4672 4.27861C77.1146 6.53794 75.149 9.55101 72.696 12.5709C67.7626 18.6445 60.9725 24.603 53.3212 24.7501L53.3404 25.7499Z" fill="#47BB60"/>
<defs>
<linearGradient id="paint0_linear_602_6248" x1="41" y1="0.75" x2="41" y2="31.25" gradientUnits="userSpaceOnUse">
<stop stop-color="#47BB61"/>
<stop offset="1" stop-color="#47BB60" stop-opacity="0"/>
</linearGradient>
</defs>
</svg>
