<svg width="20" height="21" viewBox="0 0 20 21" fill="none" xmlns="http://www.w3.org/2000/svg">
<path d="M10.834 9.71777H5.83398" stroke="#333333" stroke-width="1.25" stroke-linecap="round" stroke-linejoin="round"/>
<path d="M9.42578 2.80078C11.1258 2.80078 12.5008 3.85911 12.5008 5.55911" stroke="#333333" stroke-width="1.25" stroke-linecap="round" stroke-linejoin="round"/>
<path d="M1.66602 8.88366V5.86699C1.66602 4.16699 3.04102 2.79199 4.74102 2.79199H6.34935" stroke="#333333" stroke-width="1.25" stroke-linecap="round" stroke-linejoin="round"/>
<path d="M1.66602 8.88411C1.66602 7.04245 3.15768 5.55078 4.99935 5.55078H13.3327C15.166 5.55078 16.666 7.05078 16.666 8.88411V10.0924H15.766C15.2993 10.0924 14.8743 10.2758 14.566 10.5924C14.1493 10.9924 13.9494 11.6091 14.116 12.2424C14.3244 13.0174 15.091 13.5091 15.891 13.5091H16.666V14.7174C16.666 16.5591 15.1743 18.0508 13.3327 18.0508H4.99935C3.15768 18.0508 1.66602 16.5591 1.66602 14.7174V12.5258" stroke="#333333" stroke-width="1.25" stroke-linecap="round" stroke-linejoin="round"/>
<path d="M18.3329 10.9418V12.6585C18.3329 13.1251 17.9495 13.5085 17.4745 13.5085H15.8662C14.9662 13.5085 14.1412 12.8502 14.0662 11.9502C14.0162 11.4252 14.2162 10.9335 14.5662 10.5918C14.8745 10.2752 15.2995 10.0918 15.7662 10.0918H17.4745C17.9495 10.0918 18.3329 10.4751 18.3329 10.9418Z" stroke="#333333" stroke-width="1.25" stroke-linecap="round" stroke-linejoin="round"/>
</svg>
